<svg version="1.0" preserveAspectRatio="xMidYMid meet" height="204" viewBox="0 0 433.5 153.000002" zoomAndPan="magnify" width="578" xmlns:xlink="http://www.w3.org/1999/xlink" xmlns="http://www.w3.org/2000/svg"><defs><g></g></defs><g fill-opacity="1" fill="#fab400"><g transform="translate(31.295563, 97.133229)"><g><path d="M 8.515625 -4.796875 C 4.046875 -8.773438 1.8125 -13.878906 1.8125 -20.109375 C 1.8125 -26.335938 4.140625 -31.453125 8.796875 -35.453125 C 13.453125 -39.460938 19.210938 -41.46875 26.078125 -41.46875 C 32.828125 -41.46875 38.519531 -39.453125 43.15625 -35.421875 C 47.789062 -31.390625 50.109375 -26.285156 50.109375 -20.109375 C 50.109375 -13.929688 47.84375 -8.835938 43.3125 -4.828125 C 38.789062 -0.828125 33.046875 1.171875 26.078125 1.171875 C 18.847656 1.171875 12.992188 -0.816406 8.515625 -4.796875 Z M 19.28125 -26.9375 C 17.476562 -25.15625 16.578125 -22.875 16.578125 -20.09375 C 16.578125 -17.320312 17.4375 -15.0625 19.15625 -13.3125 C 20.882812 -11.5625 23.164062 -10.6875 26 -10.6875 C 28.71875 -10.6875 30.953125 -11.578125 32.703125 -13.359375 C 34.460938 -15.140625 35.34375 -17.390625 35.34375 -20.109375 C 35.34375 -22.878906 34.4375 -25.15625 32.625 -26.9375 C 30.820312 -28.71875 28.613281 -29.609375 26 -29.609375 C 23.332031 -29.609375 21.09375 -28.71875 19.28125 -26.9375 Z M 19.28125 -26.9375"></path></g></g></g><g fill-opacity="1" fill="#fab400"><g transform="translate(75.827696, 97.133229)"><g><path d="M 4.71875 0 L 4.71875 -40.296875 L 18.609375 -40.296875 L 18.609375 -36.046875 L 18.765625 -36.046875 C 22.378906 -39.660156 26.226562 -41.46875 30.3125 -41.46875 C 32.300781 -41.46875 34.273438 -41.207031 36.234375 -40.6875 C 38.203125 -40.164062 40.085938 -39.351562 41.890625 -38.25 C 43.703125 -37.15625 45.171875 -35.597656 46.296875 -33.578125 C 47.421875 -31.566406 47.984375 -29.222656 47.984375 -26.546875 L 47.984375 0 L 34.09375 0 L 34.09375 -22.78125 C 34.09375 -24.875 33.421875 -26.707031 32.078125 -28.28125 C 30.742188 -29.851562 29.003906 -30.640625 26.859375 -30.640625 C 24.765625 -30.640625 22.863281 -29.828125 21.15625 -28.203125 C 19.457031 -26.578125 18.609375 -24.769531 18.609375 -22.78125 L 18.609375 0 Z M 4.71875 0"></path></g></g></g><g fill-opacity="1" fill="#fab400"><g transform="translate(120.35983, 97.133229)"><g><path d="M 45.484375 -18.21875 L 16.265625 -18.21875 C 16.265625 -15.394531 17.175781 -13.300781 19 -11.9375 C 20.832031 -10.570312 22.828125 -9.890625 24.984375 -9.890625 C 27.234375 -9.890625 29.007812 -10.191406 30.3125 -10.796875 C 31.625 -11.398438 33.117188 -12.59375 34.796875 -14.375 L 44.84375 -9.34375 C 40.65625 -2.332031 33.691406 1.171875 23.953125 1.171875 C 17.878906 1.171875 12.671875 -0.90625 8.328125 -5.0625 C 3.984375 -9.226562 1.8125 -14.242188 1.8125 -20.109375 C 1.8125 -25.972656 3.984375 -31 8.328125 -35.1875 C 12.671875 -39.375 17.878906 -41.46875 23.953125 -41.46875 C 30.347656 -41.46875 35.546875 -39.617188 39.546875 -35.921875 C 43.554688 -32.234375 45.5625 -26.960938 45.5625 -20.109375 C 45.5625 -19.160156 45.535156 -18.53125 45.484375 -18.21875 Z M 16.65625 -25.921875 L 31.96875 -25.921875 C 31.65625 -28.015625 30.828125 -29.625 29.484375 -30.75 C 28.148438 -31.875 26.4375 -32.4375 24.34375 -32.4375 C 22.039062 -32.4375 20.207031 -31.832031 18.84375 -30.625 C 17.488281 -29.425781 16.757812 -27.859375 16.65625 -25.921875 Z M 16.65625 -25.921875"></path></g></g></g><g fill-opacity="1" fill="#000000"><g transform="translate(160.342739, 97.133229)"><g><path d="M 4.71875 0 L 4.71875 -40.296875 L 18.609375 -40.296875 L 18.609375 -36.046875 L 18.765625 -36.046875 C 22.378906 -39.660156 26.226562 -41.46875 30.3125 -41.46875 C 33.25 -41.46875 36 -40.863281 38.5625 -39.65625 C 41.132812 -38.457031 43.070312 -36.601562 44.375 -34.09375 C 48.457031 -39.007812 52.910156 -41.46875 57.734375 -41.46875 C 62.023438 -41.46875 65.710938 -40.265625 68.796875 -37.859375 C 71.890625 -35.453125 73.4375 -31.679688 73.4375 -26.546875 L 73.4375 0 L 59.53125 0 L 59.53125 -22.78125 C 59.53125 -24.925781 58.941406 -26.71875 57.765625 -28.15625 C 56.585938 -29.59375 54.820312 -30.3125 52.46875 -30.3125 C 50.425781 -30.3125 48.867188 -29.695312 47.796875 -28.46875 C 46.722656 -27.238281 46.132812 -25.757812 46.03125 -24.03125 L 46.03125 0 L 32.125 0 L 32.125 -22.78125 C 32.125 -24.925781 31.535156 -26.71875 30.359375 -28.15625 C 29.179688 -29.59375 27.414062 -30.3125 25.0625 -30.3125 C 22.914062 -30.3125 21.300781 -29.644531 20.21875 -28.3125 C 19.144531 -26.976562 18.609375 -25.394531 18.609375 -23.5625 L 18.609375 0 Z M 4.71875 0"></path></g></g></g><g fill-opacity="1" fill="#000000"><g transform="translate(230.32228, 97.133229)"><g><path d="M 6.046875 -62.75 C 7.671875 -64.375 9.609375 -65.1875 11.859375 -65.1875 C 14.109375 -65.1875 16.046875 -64.375 17.671875 -62.75 C 19.296875 -61.132812 20.109375 -59.195312 20.109375 -56.9375 C 20.109375 -54.6875 19.296875 -52.75 17.671875 -51.125 C 16.046875 -49.507812 14.109375 -48.703125 11.859375 -48.703125 C 9.609375 -48.703125 7.671875 -49.507812 6.046875 -51.125 C 4.421875 -52.75 3.609375 -54.6875 3.609375 -56.9375 C 3.609375 -59.195312 4.421875 -61.132812 6.046875 -62.75 Z M 4.71875 -40.296875 L 4.71875 0 L 18.609375 0 L 18.609375 -40.296875 Z M 4.71875 -40.296875"></path></g></g></g><g fill-opacity="1" fill="#000000"><g transform="translate(246.658066, 97.133229)"><g><path d="M 4.71875 0 L 4.71875 -40.296875 L 18.609375 -40.296875 L 18.609375 -36.046875 L 18.765625 -36.046875 C 22.378906 -39.660156 26.226562 -41.46875 30.3125 -41.46875 C 32.300781 -41.46875 34.273438 -41.207031 36.234375 -40.6875 C 38.203125 -40.164062 40.085938 -39.351562 41.890625 -38.25 C 43.703125 -37.15625 45.171875 -35.597656 46.296875 -33.578125 C 47.421875 -31.566406 47.984375 -29.222656 47.984375 -26.546875 L 47.984375 0 L 34.09375 0 L 34.09375 -22.78125 C 34.09375 -24.875 33.421875 -26.707031 32.078125 -28.28125 C 30.742188 -29.851562 29.003906 -30.640625 26.859375 -30.640625 C 24.765625 -30.640625 22.863281 -29.828125 21.15625 -28.203125 C 19.457031 -26.578125 18.609375 -24.769531 18.609375 -22.78125 L 18.609375 0 Z M 4.71875 0"></path></g></g></g><g fill-opacity="1" fill="#000000"><g transform="translate(291.190205, 97.133229)"><g><path d="M 45.484375 -18.21875 L 16.265625 -18.21875 C 16.265625 -15.394531 17.175781 -13.300781 19 -11.9375 C 20.832031 -10.570312 22.828125 -9.890625 24.984375 -9.890625 C 27.234375 -9.890625 29.007812 -10.191406 30.3125 -10.796875 C 31.625 -11.398438 33.117188 -12.59375 34.796875 -14.375 L 44.84375 -9.34375 C 40.65625 -2.332031 33.691406 1.171875 23.953125 1.171875 C 17.878906 1.171875 12.671875 -0.90625 8.328125 -5.0625 C 3.984375 -9.226562 1.8125 -14.242188 1.8125 -20.109375 C 1.8125 -25.972656 3.984375 -31 8.328125 -35.1875 C 12.671875 -39.375 17.878906 -41.46875 23.953125 -41.46875 C 30.347656 -41.46875 35.546875 -39.617188 39.546875 -35.921875 C 43.554688 -32.234375 45.5625 -26.960938 45.5625 -20.109375 C 45.5625 -19.160156 45.535156 -18.53125 45.484375 -18.21875 Z M 16.65625 -25.921875 L 31.96875 -25.921875 C 31.65625 -28.015625 30.828125 -29.625 29.484375 -30.75 C 28.148438 -31.875 26.4375 -32.4375 24.34375 -32.4375 C 22.039062 -32.4375 20.207031 -31.832031 18.84375 -30.625 C 17.488281 -29.425781 16.757812 -27.859375 16.65625 -25.921875 Z M 16.65625 -25.921875"></path></g></g></g><g fill-opacity="1" fill="#000000"><g transform="translate(331.16694, 97.133229)"><g><path d="M 4.71875 0 L 4.71875 -40.296875 L 18.609375 -40.296875 L 18.609375 -34.484375 L 18.765625 -34.484375 C 18.878906 -34.691406 19.050781 -34.953125 19.28125 -35.265625 C 19.519531 -35.578125 20.03125 -36.125 20.8125 -36.90625 C 21.601562 -37.695312 22.441406 -38.40625 23.328125 -39.03125 C 24.210938 -39.664062 25.363281 -40.226562 26.78125 -40.71875 C 28.195312 -41.21875 29.640625 -41.46875 31.109375 -41.46875 C 32.617188 -41.46875 34.109375 -41.257812 35.578125 -40.84375 C 37.046875 -40.425781 38.117188 -40.007812 38.796875 -39.59375 L 39.90625 -38.953125 L 34.09375 -27.171875 C 32.363281 -28.640625 29.953125 -29.375 26.859375 -29.375 C 25.179688 -29.375 23.738281 -29.003906 22.53125 -28.265625 C 21.332031 -27.535156 20.484375 -26.644531 19.984375 -25.59375 C 19.492188 -24.550781 19.140625 -23.664062 18.921875 -22.9375 C 18.710938 -22.207031 18.609375 -21.628906 18.609375 -21.203125 L 18.609375 0 Z M 4.71875 0"></path></g></g></g><g fill-opacity="1" fill="#000000"><g transform="translate(362.896833, 97.133229)"><g><path d="M 22.234375 -41.46875 C 24.535156 -41.46875 26.8125 -41.207031 29.0625 -40.6875 C 31.3125 -40.164062 32.988281 -39.640625 34.09375 -39.109375 L 35.734375 -38.328125 L 31.1875 -29.21875 C 28.039062 -30.894531 25.054688 -31.734375 22.234375 -31.734375 C 20.660156 -31.734375 19.546875 -31.5625 18.890625 -31.21875 C 18.234375 -30.882812 17.90625 -30.242188 17.90625 -29.296875 C 17.90625 -29.085938 17.929688 -28.878906 17.984375 -28.671875 C 18.035156 -28.460938 18.140625 -28.265625 18.296875 -28.078125 C 18.453125 -27.898438 18.597656 -27.742188 18.734375 -27.609375 C 18.867188 -27.472656 19.09375 -27.328125 19.40625 -27.171875 C 19.71875 -27.015625 19.960938 -26.894531 20.140625 -26.8125 C 20.328125 -26.738281 20.628906 -26.625 21.046875 -26.46875 C 21.460938 -26.3125 21.773438 -26.191406 21.984375 -26.109375 C 22.203125 -26.035156 22.554688 -25.921875 23.046875 -25.765625 C 23.546875 -25.609375 23.925781 -25.503906 24.1875 -25.453125 C 25.8125 -24.984375 27.222656 -24.457031 28.421875 -23.875 C 29.628906 -23.300781 30.898438 -22.515625 32.234375 -21.515625 C 33.578125 -20.523438 34.613281 -19.269531 35.34375 -17.75 C 36.082031 -16.226562 36.453125 -14.5 36.453125 -12.5625 C 36.453125 -3.40625 30.085938 1.171875 17.359375 1.171875 C 14.472656 1.171875 11.734375 0.726562 9.140625 -0.15625 C 6.554688 -1.050781 4.6875 -1.941406 3.53125 -2.828125 L 1.8125 -4.234375 L 7.46875 -13.75 C 7.882812 -13.382812 8.429688 -12.953125 9.109375 -12.453125 C 9.785156 -11.953125 11.015625 -11.269531 12.796875 -10.40625 C 14.578125 -9.539062 16.125 -9.109375 17.4375 -9.109375 C 20.3125 -9.109375 21.75 -10.078125 21.75 -12.015625 C 21.75 -12.910156 21.382812 -13.601562 20.65625 -14.09375 C 19.925781 -14.59375 18.679688 -15.15625 16.921875 -15.78125 C 15.171875 -16.414062 13.796875 -16.992188 12.796875 -17.515625 C 10.285156 -18.828125 8.296875 -20.304688 6.828125 -21.953125 C 5.367188 -23.597656 4.640625 -25.785156 4.640625 -28.515625 C 4.640625 -32.597656 6.222656 -35.773438 9.390625 -38.046875 C 12.554688 -40.328125 16.835938 -41.46875 22.234375 -41.46875 Z M 22.234375 -41.46875"></path></g></g></g><g fill-opacity="1" fill="#000000"><g transform="translate(154.3982, 118.979277)"><g><path d="M 5.5625 -8.9375 C 7.53125 -8.9375 8.515625 -7.71875 8.515625 -5.28125 L 8.515625 -0.8125 C 8.515625 -0.582031 8.4375 -0.390625 8.28125 -0.234375 C 8.132812 -0.078125 7.945312 0 7.71875 0 C 7.488281 0 7.296875 -0.078125 7.140625 -0.234375 C 6.992188 -0.390625 6.921875 -0.582031 6.921875 -0.8125 L 6.921875 -5.28125 C 6.921875 -6.726562 6.304688 -7.453125 5.078125 -7.453125 C 4.421875 -7.453125 3.875 -7.242188 3.4375 -6.828125 C 3 -6.410156 2.78125 -5.894531 2.78125 -5.28125 L 2.78125 -0.8125 C 2.78125 -0.582031 2.703125 -0.390625 2.546875 -0.234375 C 2.398438 -0.078125 2.210938 0 1.984375 0 C 1.742188 0 1.550781 -0.0703125 1.40625 -0.21875 C 1.257812 -0.375 1.1875 -0.570312 1.1875 -0.8125 L 1.1875 -11.609375 C 1.1875 -11.828125 1.257812 -12.015625 1.40625 -12.171875 C 1.5625 -12.328125 1.753906 -12.40625 1.984375 -12.40625 C 2.210938 -12.40625 2.398438 -12.328125 2.546875 -12.171875 C 2.703125 -12.015625 2.78125 -11.828125 2.78125 -11.609375 L 2.78125 -7.359375 C 3.0625 -7.796875 3.453125 -8.164062 3.953125 -8.46875 C 4.460938 -8.78125 5 -8.9375 5.5625 -8.9375 Z M 5.5625 -8.9375"></path></g></g></g><g fill-opacity="1" fill="#000000"><g transform="translate(175.041313, 118.979277)"><g><path d="M 9.5 -4.390625 C 9.5 -3.515625 9.300781 -2.726562 8.90625 -2.03125 C 8.519531 -1.34375 7.988281 -0.800781 7.3125 -0.40625 C 6.632812 -0.0195312 5.890625 0.171875 5.078125 0.171875 C 4.265625 0.171875 3.519531 -0.0195312 2.84375 -0.40625 C 2.164062 -0.800781 1.628906 -1.34375 1.234375 -2.03125 C 0.847656 -2.726562 0.65625 -3.515625 0.65625 -4.390625 C 0.65625 -5.265625 0.847656 -6.050781 1.234375 -6.75 C 1.628906 -7.457031 2.164062 -8.003906 2.84375 -8.390625 C 3.519531 -8.785156 4.265625 -8.984375 5.078125 -8.984375 C 5.890625 -8.984375 6.632812 -8.785156 7.3125 -8.390625 C 7.988281 -8.003906 8.519531 -7.457031 8.90625 -6.75 C 9.300781 -6.050781 9.5 -5.265625 9.5 -4.390625 Z M 7.90625 -4.390625 C 7.90625 -4.992188 7.78125 -5.53125 7.53125 -6 C 7.28125 -6.476562 6.941406 -6.847656 6.515625 -7.109375 C 6.085938 -7.378906 5.609375 -7.515625 5.078125 -7.515625 C 4.554688 -7.515625 4.078125 -7.378906 3.640625 -7.109375 C 3.210938 -6.847656 2.875 -6.476562 2.625 -6 C 2.375 -5.53125 2.25 -4.992188 2.25 -4.390625 C 2.25 -3.796875 2.375 -3.265625 2.625 -2.796875 C 2.875 -2.328125 3.210938 -1.960938 3.640625 -1.703125 C 4.078125 -1.441406 4.554688 -1.3125 5.078125 -1.3125 C 5.609375 -1.3125 6.085938 -1.441406 6.515625 -1.703125 C 6.941406 -1.960938 7.28125 -2.328125 7.53125 -2.796875 C 7.78125 -3.265625 7.90625 -3.796875 7.90625 -4.390625 Z M 7.90625 -4.390625"></path></g></g></g><g fill-opacity="1" fill="#000000"><g transform="translate(196.137091, 118.979277)"><g><path d="M 0.6875 -1.375 C 0.582031 -1.53125 0.53125 -1.679688 0.53125 -1.828125 C 0.53125 -2.046875 0.648438 -2.234375 0.890625 -2.390625 C 1.003906 -2.472656 1.132812 -2.515625 1.28125 -2.515625 C 1.476562 -2.515625 1.660156 -2.429688 1.828125 -2.265625 C 2.160156 -1.878906 2.519531 -1.59375 2.90625 -1.40625 C 3.289062 -1.21875 3.753906 -1.125 4.296875 -1.125 C 4.710938 -1.132812 5.082031 -1.226562 5.40625 -1.40625 C 5.738281 -1.59375 5.90625 -1.894531 5.90625 -2.3125 C 5.90625 -2.695312 5.738281 -2.988281 5.40625 -3.1875 C 5.070312 -3.382812 4.585938 -3.566406 3.953125 -3.734375 C 3.328125 -3.898438 2.804688 -4.078125 2.390625 -4.265625 C 1.984375 -4.453125 1.632812 -4.71875 1.34375 -5.0625 C 1.0625 -5.414062 0.921875 -5.878906 0.921875 -6.453125 C 0.921875 -6.953125 1.0625 -7.390625 1.34375 -7.765625 C 1.632812 -8.148438 2.015625 -8.445312 2.484375 -8.65625 C 2.960938 -8.875 3.484375 -8.984375 4.046875 -8.984375 C 4.578125 -8.984375 5.109375 -8.878906 5.640625 -8.671875 C 6.171875 -8.472656 6.601562 -8.171875 6.9375 -7.765625 C 7.070312 -7.609375 7.140625 -7.445312 7.140625 -7.28125 C 7.140625 -7.101562 7.050781 -6.925781 6.875 -6.75 C 6.757812 -6.65625 6.617188 -6.609375 6.453125 -6.609375 C 6.253906 -6.609375 6.09375 -6.675781 5.96875 -6.8125 C 5.726562 -7.070312 5.4375 -7.273438 5.09375 -7.421875 C 4.757812 -7.566406 4.382812 -7.640625 3.96875 -7.640625 C 3.550781 -7.640625 3.191406 -7.550781 2.890625 -7.375 C 2.597656 -7.207031 2.453125 -6.914062 2.453125 -6.5 C 2.460938 -6.113281 2.628906 -5.820312 2.953125 -5.625 C 3.285156 -5.4375 3.789062 -5.253906 4.46875 -5.078125 C 5.0625 -4.921875 5.550781 -4.753906 5.9375 -4.578125 C 6.332031 -4.398438 6.664062 -4.132812 6.9375 -3.78125 C 7.207031 -3.425781 7.34375 -2.960938 7.34375 -2.390625 C 7.34375 -1.867188 7.191406 -1.414062 6.890625 -1.03125 C 6.585938 -0.644531 6.191406 -0.347656 5.703125 -0.140625 C 5.222656 0.0664062 4.707031 0.171875 4.15625 0.171875 C 3.457031 0.171875 2.804688 0.0507812 2.203125 -0.1875 C 1.609375 -0.4375 1.101562 -0.832031 0.6875 -1.375 Z M 0.6875 -1.375"></path></g></g></g><g fill-opacity="1" fill="#000000"><g transform="translate(215.070121, 118.979277)"><g><path d="M 3.578125 -7.21875 L 3.578125 -2.234375 C 3.578125 -1.671875 3.828125 -1.390625 4.328125 -1.390625 C 4.398438 -1.390625 4.503906 -1.410156 4.640625 -1.453125 C 4.773438 -1.492188 4.882812 -1.515625 4.96875 -1.515625 C 5.113281 -1.515625 5.234375 -1.453125 5.328125 -1.328125 C 5.429688 -1.203125 5.484375 -1.046875 5.484375 -0.859375 C 5.484375 -0.617188 5.347656 -0.414062 5.078125 -0.25 C 4.804688 -0.0820312 4.503906 0 4.171875 0 C 3.804688 0 3.46875 -0.0351562 3.15625 -0.109375 C 2.851562 -0.191406 2.582031 -0.390625 2.34375 -0.703125 C 2.101562 -1.023438 1.984375 -1.507812 1.984375 -2.15625 L 1.984375 -7.21875 L 1 -7.21875 C 0.789062 -7.21875 0.613281 -7.285156 0.46875 -7.421875 C 0.332031 -7.566406 0.265625 -7.75 0.265625 -7.96875 C 0.265625 -8.175781 0.332031 -8.347656 0.46875 -8.484375 C 0.613281 -8.617188 0.789062 -8.6875 1 -8.6875 L 1.984375 -8.6875 L 1.984375 -10.09375 C 1.984375 -10.3125 2.054688 -10.5 2.203125 -10.65625 C 2.359375 -10.8125 2.550781 -10.890625 2.78125 -10.890625 C 3.007812 -10.890625 3.195312 -10.8125 3.34375 -10.65625 C 3.5 -10.5 3.578125 -10.3125 3.578125 -10.09375 L 3.578125 -8.6875 L 4.96875 -8.6875 C 5.175781 -8.6875 5.347656 -8.613281 5.484375 -8.46875 C 5.628906 -8.332031 5.703125 -8.160156 5.703125 -7.953125 C 5.703125 -7.734375 5.628906 -7.554688 5.484375 -7.421875 C 5.347656 -7.285156 5.175781 -7.21875 4.96875 -7.21875 Z M 3.578125 -7.21875"></path></g></g></g><g fill-opacity="1" fill="#000000"><g transform="translate(232.376909, 118.979277)"><g><path d="M 2.703125 -0.8125 C 2.703125 -0.582031 2.625 -0.390625 2.46875 -0.234375 C 2.320312 -0.078125 2.128906 0 1.890625 0 C 1.671875 0 1.484375 -0.078125 1.328125 -0.234375 C 1.179688 -0.390625 1.109375 -0.582031 1.109375 -0.8125 L 1.109375 -8.0625 C 1.109375 -8.289062 1.179688 -8.484375 1.328125 -8.640625 C 1.484375 -8.796875 1.671875 -8.875 1.890625 -8.875 C 2.128906 -8.875 2.320312 -8.796875 2.46875 -8.640625 C 2.625 -8.484375 2.703125 -8.289062 2.703125 -8.0625 Z M 1.890625 -9.96875 C 1.566406 -9.96875 1.332031 -10.023438 1.1875 -10.140625 C 1.050781 -10.265625 0.984375 -10.457031 0.984375 -10.71875 L 0.984375 -10.984375 C 0.984375 -11.253906 1.054688 -11.441406 1.203125 -11.546875 C 1.359375 -11.660156 1.59375 -11.71875 1.90625 -11.71875 C 2.226562 -11.71875 2.457031 -11.65625 2.59375 -11.53125 C 2.726562 -11.414062 2.796875 -11.234375 2.796875 -10.984375 L 2.796875 -10.71875 C 2.796875 -10.445312 2.722656 -10.253906 2.578125 -10.140625 C 2.429688 -10.023438 2.203125 -9.96875 1.890625 -9.96875 Z M 1.890625 -9.96875"></path></g></g></g><g fill-opacity="1" fill="#000000"><g transform="translate(247.118584, 118.979277)"><g><path d="M 5.671875 -8.984375 C 7.679688 -8.984375 8.6875 -7.773438 8.6875 -5.359375 L 8.6875 -0.8125 C 8.6875 -0.582031 8.609375 -0.390625 8.453125 -0.234375 C 8.304688 -0.078125 8.113281 0 7.875 0 C 7.65625 0 7.46875 -0.078125 7.3125 -0.234375 C 7.164062 -0.390625 7.09375 -0.582031 7.09375 -0.8125 L 7.09375 -5.34375 C 7.09375 -6.007812 6.941406 -6.535156 6.640625 -6.921875 C 6.335938 -7.316406 5.84375 -7.515625 5.15625 -7.515625 C 4.71875 -7.515625 4.316406 -7.414062 3.953125 -7.21875 C 3.585938 -7.019531 3.300781 -6.753906 3.09375 -6.421875 C 2.882812 -6.097656 2.78125 -5.738281 2.78125 -5.34375 L 2.78125 -0.8125 C 2.78125 -0.582031 2.703125 -0.390625 2.546875 -0.234375 C 2.398438 -0.078125 2.210938 0 1.984375 0 C 1.742188 0 1.550781 -0.0703125 1.40625 -0.21875 C 1.257812 -0.375 1.1875 -0.570312 1.1875 -0.8125 L 1.1875 -7.984375 C 1.1875 -8.203125 1.257812 -8.390625 1.40625 -8.546875 C 1.5625 -8.703125 1.753906 -8.78125 1.984375 -8.78125 C 2.210938 -8.78125 2.398438 -8.703125 2.546875 -8.546875 C 2.703125 -8.390625 2.78125 -8.203125 2.78125 -7.984375 L 2.78125 -7.390625 C 3.070312 -7.835938 3.476562 -8.210938 4 -8.515625 C 4.519531 -8.828125 5.078125 -8.984375 5.671875 -8.984375 Z M 5.671875 -8.984375"></path></g></g></g><g fill-opacity="1" fill="#000000"><g transform="translate(267.929345, 118.979277)"><g><path d="M 8.53125 -8.90625 C 8.769531 -8.90625 8.960938 -8.828125 9.109375 -8.671875 C 9.265625 -8.523438 9.34375 -8.328125 9.34375 -8.078125 L 9.34375 -0.703125 C 9.34375 0.203125 9.148438 0.957031 8.765625 1.5625 C 8.378906 2.175781 7.851562 2.628906 7.1875 2.921875 C 6.53125 3.210938 5.789062 3.359375 4.96875 3.359375 C 4.519531 3.359375 3.992188 3.28125 3.390625 3.125 C 2.796875 2.96875 2.414062 2.800781 2.25 2.625 C 1.90625 2.445312 1.734375 2.226562 1.734375 1.96875 C 1.734375 1.894531 1.753906 1.800781 1.796875 1.6875 C 1.921875 1.414062 2.128906 1.28125 2.421875 1.28125 C 2.554688 1.28125 2.710938 1.3125 2.890625 1.375 C 3.773438 1.71875 4.472656 1.890625 4.984375 1.890625 C 5.878906 1.890625 6.5625 1.675781 7.03125 1.25 C 7.507812 0.820312 7.75 0.234375 7.75 -0.515625 L 7.75 -1.421875 C 7.507812 -0.984375 7.113281 -0.609375 6.5625 -0.296875 C 6.007812 0.015625 5.425781 0.171875 4.8125 0.171875 C 4.039062 0.171875 3.335938 -0.0195312 2.703125 -0.40625 C 2.066406 -0.800781 1.566406 -1.347656 1.203125 -2.046875 C 0.835938 -2.753906 0.65625 -3.539062 0.65625 -4.40625 C 0.65625 -5.28125 0.835938 -6.066406 1.203125 -6.765625 C 1.566406 -7.460938 2.0625 -8.003906 2.6875 -8.390625 C 3.320312 -8.785156 4.019531 -8.984375 4.78125 -8.984375 C 5.394531 -8.984375 5.96875 -8.84375 6.5 -8.5625 C 7.03125 -8.28125 7.445312 -7.941406 7.75 -7.546875 L 7.75 -8.078125 C 7.75 -8.316406 7.820312 -8.515625 7.96875 -8.671875 C 8.113281 -8.828125 8.300781 -8.90625 8.53125 -8.90625 Z M 5 -1.3125 C 5.539062 -1.3125 6.023438 -1.441406 6.453125 -1.703125 C 6.878906 -1.960938 7.210938 -2.328125 7.453125 -2.796875 C 7.691406 -3.273438 7.8125 -3.8125 7.8125 -4.40625 C 7.8125 -5 7.691406 -5.53125 7.453125 -6 C 7.210938 -6.46875 6.878906 -6.835938 6.453125 -7.109375 C 6.023438 -7.378906 5.539062 -7.515625 5 -7.515625 C 4.457031 -7.515625 3.972656 -7.378906 3.546875 -7.109375 C 3.128906 -6.835938 2.800781 -6.460938 2.5625 -5.984375 C 2.320312 -5.515625 2.203125 -4.988281 2.203125 -4.40625 C 2.203125 -3.820312 2.320312 -3.289062 2.5625 -2.8125 C 2.800781 -2.34375 3.128906 -1.972656 3.546875 -1.703125 C 3.972656 -1.441406 4.457031 -1.3125 5 -1.3125 Z M 5 -1.3125"></path></g></g></g></svg>